<svg width="178" height="178" viewBox="0 0 178 178" fill="none" xmlns="http://www.w3.org/2000/svg">
<g opacity="0.5">
<path d="M157.934 90.4974L166.6 91.1671L166.431 93.3494L159.607 92.822L159.179 98.3472L157.338 98.2048L157.934 90.4974Z" fill="white"/>
<path d="M156.667 101.772L165.172 103.563L164.721 105.705L156.215 103.914L156.667 101.772Z" fill="white"/>
<path d="M155.06 109.165L163.14 112.369L161.884 115.533L157.333 115.647C157.175 115.657 156.971 115.657 156.72 115.649C156.466 115.648 156.201 115.642 155.924 115.632C155.643 115.63 155.395 115.627 155.179 115.622L155.146 115.705C155.294 115.836 155.464 115.99 155.657 116.166C155.85 116.343 156.043 116.519 156.237 116.695C156.43 116.872 156.592 117.022 156.724 117.147L159.966 120.366L158.743 123.447L150.663 120.242L151.466 118.22L156.1 120.058C156.249 120.117 156.414 120.182 156.594 120.253C156.771 120.333 156.945 120.411 157.114 120.487C157.283 120.563 157.435 120.628 157.568 120.681L157.605 120.586C157.488 120.494 157.352 120.377 157.2 120.235C157.045 120.101 156.889 119.967 156.734 119.833C156.578 119.698 156.445 119.577 156.333 119.47L152.493 115.633L153.259 113.704L158.686 113.543C158.897 113.536 159.107 113.533 159.315 113.534C159.532 113.538 159.733 113.545 159.919 113.556C160.103 113.574 160.257 113.585 160.382 113.589L160.42 113.495C160.315 113.463 160.18 113.414 160.015 113.349C159.847 113.291 159.669 113.225 159.481 113.15C159.29 113.084 159.104 113.014 158.924 112.943L154.29 111.105L155.06 109.165Z" fill="white"/>
<path d="M148.657 123.344L156.092 127.846L154.957 129.718L147.522 125.216L148.657 123.344Z" fill="white"/>
<path d="M143.238 131.355L148.546 135.677L150.968 132.705L152.4 133.871L146.19 141.492L144.758 140.326L147.171 137.364L141.864 133.042L143.238 131.355Z" fill="white"/>
<path d="M136.415 139.014L142.003 145.671L135.179 151.396L134.073 150.078L139.22 145.76L138.122 144.452L133.576 148.265L132.486 146.967L137.032 143.153L135.852 141.748L130.628 146.131L129.513 144.803L136.415 139.014Z" fill="white"/>
<path d="M125.881 147.26L130.024 154.901L125.875 157.149C124.933 157.66 124.044 157.949 123.209 158.018C122.377 158.095 121.625 157.946 120.952 157.572C120.283 157.205 119.723 156.607 119.273 155.776C118.826 154.953 118.63 154.158 118.684 153.39C118.742 152.63 119.028 151.918 119.542 151.256C120.06 150.601 120.79 150.019 121.732 149.508L125.881 147.26ZM124.783 149.826L122.658 150.978C122.272 151.187 121.944 151.422 121.674 151.684C121.4 151.957 121.192 152.247 121.051 152.553C120.914 152.867 120.855 153.192 120.874 153.527C120.897 153.87 121.005 154.219 121.198 154.575L121.336 154.831C121.529 155.187 121.761 155.464 122.032 155.663C122.307 155.869 122.611 155.996 122.945 156.046C123.283 156.103 123.641 156.091 124.02 156.01C124.391 155.934 124.769 155.791 125.155 155.582L127.279 154.431L124.783 149.826Z" fill="white"/>
<path d="M105.945 155.516C107.098 155.222 108.104 155.14 108.964 155.269C109.826 155.407 110.535 155.748 111.092 156.294C111.643 156.85 112.039 157.602 112.28 158.55C112.635 159.94 112.462 161.124 111.763 162.103C111.065 163.09 109.871 163.799 108.179 164.23C107.223 164.473 106.345 164.549 105.547 164.456C104.749 164.364 104.079 164.112 103.54 163.701C103 163.29 102.639 162.729 102.458 162.018L104.53 161.49C104.626 161.866 104.826 162.155 105.129 162.356C105.427 162.568 105.806 162.689 106.266 162.719C106.719 162.752 107.227 162.697 107.791 162.553C108.412 162.395 108.921 162.156 109.319 161.838C109.716 161.519 109.986 161.141 110.127 160.705C110.268 160.268 110.272 159.789 110.139 159.266L110.061 158.959C109.927 158.436 109.693 158.012 109.358 157.689C109.025 157.373 108.608 157.17 108.106 157.081C107.605 156.991 107.043 157.025 106.422 157.183C105.825 157.335 105.331 157.531 104.94 157.77C104.548 158.009 104.271 158.288 104.109 158.608C103.938 158.93 103.901 159.279 103.997 159.655L101.974 160.17C101.797 159.475 101.843 158.819 102.112 158.202C102.381 157.585 102.844 157.045 103.501 156.582C104.15 156.121 104.964 155.766 105.945 155.516Z" fill="white"/>
<path d="M91.0343 157.597C92.1891 157.552 93.1989 157.691 94.0638 158.012C94.9204 158.333 95.589 158.818 96.0699 159.466C96.5511 160.123 96.8101 160.928 96.8469 161.88C96.8836 162.833 96.6873 163.651 96.2579 164.334C95.8288 165.026 95.1995 165.561 94.37 165.939C93.5324 166.326 92.5363 166.541 91.3816 166.586C90.2184 166.631 89.2086 166.493 88.3521 166.171C87.4959 165.858 86.8272 165.373 86.346 164.717C85.8651 164.068 85.6063 163.268 85.5695 162.315C85.5327 161.363 85.7289 160.541 86.158 159.849C86.5874 159.166 87.2167 158.631 88.0459 158.244C88.8751 157.858 89.8712 157.642 91.0343 157.597ZM91.1012 159.329C90.604 159.348 90.1509 159.421 89.7422 159.546C89.3337 159.68 88.982 159.862 88.6871 160.093C88.3921 160.324 88.1709 160.607 88.0235 160.942C87.8679 161.286 87.7983 161.668 87.8146 162.09L87.8258 162.38C87.8421 162.802 87.9408 163.174 88.1221 163.496C88.295 163.818 88.5373 164.083 88.8492 164.291C89.1611 164.498 89.5257 164.649 89.9429 164.742C90.3604 164.844 90.8179 164.886 91.3151 164.867C91.8124 164.847 92.2653 164.771 92.6737 164.637C93.0825 164.511 93.4343 164.333 93.7293 164.102C94.0243 163.871 94.2497 163.588 94.4056 163.253C94.553 162.918 94.6186 162.54 94.6023 162.119L94.5911 161.828C94.5748 161.407 94.4801 161.03 94.3069 160.699C94.1256 160.377 93.8791 160.112 93.5672 159.905C93.2553 159.698 92.8906 159.543 92.473 159.441C92.0558 159.347 91.5985 159.31 91.1012 159.329Z" fill="white"/>
<path d="M81.9881 157.527L80.6542 166.116L78.4912 165.78L79.5417 159.016L74.0656 158.167L74.3491 156.341L81.9881 157.527Z" fill="white"/>
<path d="M71.0099 155.517L68.2948 163.774L66.2153 163.091L68.3535 156.588L63.0888 154.858L63.6658 153.104L71.0099 155.517Z" fill="white"/>
<path d="M59.8954 151.497L55.7523 159.138L47.9209 154.895L48.7411 153.382L54.648 156.583L55.4621 155.081L50.2449 152.254L51.0531 150.764L56.2703 153.591L57.1447 151.978L51.1488 148.729L51.9751 147.205L59.8954 151.497Z" fill="white"/>
<path d="M44.9849 141.704C45.8961 142.469 46.5501 143.238 46.9471 144.011C47.3387 144.791 47.4754 145.566 47.3571 146.337C47.227 147.108 46.8474 147.869 46.2184 148.618C45.2965 149.716 44.2339 150.267 43.0306 150.271C41.8218 150.281 40.5486 149.725 39.211 148.603C38.4549 147.968 37.8815 147.3 37.4907 146.598C37.1 145.896 36.9139 145.206 36.9324 144.528C36.9509 143.85 37.1961 143.23 37.6679 142.668L39.3061 144.042C39.0566 144.339 38.9388 144.67 38.9527 145.034C38.9547 145.399 39.0776 145.777 39.3214 146.169C39.5588 146.555 39.9004 146.935 40.3463 147.309C40.8375 147.721 41.3285 147.995 41.8195 148.132C42.3105 148.269 42.7744 148.267 43.2113 148.127C43.6482 147.987 44.0401 147.71 44.3872 147.297L44.5906 147.055C44.9376 146.641 45.1449 146.204 45.2124 145.743C45.2744 145.289 45.1955 144.832 44.9757 144.372C44.7558 143.912 44.4004 143.477 43.9092 143.065C43.4375 142.669 42.9902 142.382 42.5674 142.203C42.1446 142.025 41.756 141.963 41.4015 142.018C41.0406 142.067 40.7354 142.241 40.4859 142.538L38.8865 141.196C39.3475 140.647 39.9071 140.302 40.5654 140.161C41.2237 140.019 41.9326 140.08 42.6921 140.343C43.4452 140.6 44.2094 141.054 44.9849 141.704Z" fill="white"/>
<path d="M36.3081 133.313L30.9848 137.616L33.3957 140.597L31.9591 141.758L25.7767 134.114L27.2133 132.953L29.6162 135.924L34.9395 131.621L36.3081 133.313Z" fill="white"/>
<path d="M30.6302 125.548L23.1786 130.023L22.0511 128.146L29.5028 123.672L30.6302 125.548Z" fill="white"/>
<path d="M25.0851 114.271C25.5195 115.342 25.7326 116.339 25.7244 117.262C25.7131 118.176 25.4843 118.97 25.0379 119.642C24.5838 120.318 23.915 120.834 23.0317 121.193C22.1483 121.551 21.3123 121.644 20.5236 121.472C19.727 121.303 19.01 120.893 18.3725 120.241C17.7239 119.585 17.1825 118.721 16.7482 117.651C16.3107 116.572 16.0976 115.575 16.1089 114.66C16.1124 113.749 16.3412 112.955 16.7954 112.28C17.2418 111.607 17.9066 111.092 18.79 110.734C19.6733 110.376 20.5132 110.282 21.3098 110.45C22.0985 110.622 22.8156 111.032 23.4609 111.681C24.1062 112.329 24.6477 113.193 25.0851 114.271ZM23.4787 114.923C23.2917 114.461 23.0697 114.06 22.8127 113.718C22.5479 113.379 22.2569 113.111 21.9395 112.912C21.6221 112.713 21.2809 112.601 20.9158 112.576C20.5397 112.546 20.1562 112.611 19.7654 112.769L19.4957 112.878C19.1048 113.037 18.7887 113.256 18.5472 113.536C18.3026 113.808 18.1357 114.126 18.0466 114.489C17.9575 114.853 17.9398 115.247 17.9935 115.671C18.0394 116.099 18.1559 116.543 18.3429 117.004C18.5299 117.465 18.7559 117.865 19.0206 118.204C19.2776 118.546 19.5648 118.816 19.8821 119.015C20.1995 119.214 20.5423 119.33 20.9106 119.363C21.2757 119.388 21.6537 119.321 22.0445 119.163L22.3142 119.053C22.7051 118.895 23.0267 118.678 23.2792 118.403C23.5206 118.123 23.6859 117.801 23.775 117.437C23.8642 117.074 23.8858 116.678 23.8399 116.251C23.7861 115.826 23.6658 115.384 23.4787 114.923Z" fill="white"/>
<path d="M22.0089 105.941L13.4411 107.405L13.1019 105.422L16.6196 100.098C16.6788 99.9933 16.7677 99.8626 16.8862 99.7054C17.0034 99.5399 17.1282 99.3689 17.2605 99.1922C17.3846 99.017 17.4956 98.8654 17.5935 98.7374L17.5743 98.6251C17.4094 98.6619 17.2037 98.7099 16.9571 98.7691C16.7091 98.8201 16.502 98.8598 16.3357 98.8882L12.1079 99.6108L11.756 97.5531L20.3238 96.0887L20.6565 98.0341L17.1325 103.321C16.9699 103.572 16.788 103.834 16.5867 104.108C16.3854 104.382 16.222 104.602 16.0965 104.769L16.1136 104.869C16.2203 104.842 16.4018 104.803 16.6581 104.75C16.9144 104.698 17.2047 104.644 17.5289 104.589L21.6569 103.883L22.0089 105.941Z" fill="white"/>
<path d="M20.0736 85.809L11.4251 84.9394L11.6443 82.7616L18.4547 83.4464L19.0095 77.9326L20.8475 78.1174L20.0736 85.809Z" fill="white"/>
<path d="M21.5817 74.6354L13.1192 72.6508L13.6193 70.5198L22.0818 72.5045L21.5817 74.6354Z" fill="white"/>
<path d="M23.3404 67.298L15.3346 63.913L16.6608 60.7786L21.2132 60.7666C21.3716 60.7603 21.576 60.7643 21.8264 60.7786C22.08 60.7851 22.3454 60.7965 22.6224 60.8129C22.9026 60.8215 23.1508 60.8303 23.3668 60.8392L23.4013 60.7577C23.2567 60.6233 23.0898 60.4657 22.9007 60.285C22.7115 60.1043 22.5224 59.9236 22.3333 59.7429C22.1441 59.5622 21.985 59.4079 21.8559 59.28L18.6871 55.9896L19.9788 52.9367L27.9846 56.3218L27.1366 58.3259L22.5452 56.3846C22.3976 56.3222 22.2345 56.2532 22.0558 56.1776C21.8804 56.0943 21.7089 56.0126 21.5412 55.9326C21.3736 55.8526 21.2238 55.7846 21.0917 55.7288L21.0523 55.822C21.1679 55.9167 21.3003 56.0368 21.4494 56.1822C21.6018 56.3199 21.7541 56.4576 21.9065 56.5953C22.0589 56.733 22.1897 56.857 22.2987 56.9672L26.052 60.8894L25.2435 62.8003L19.814 62.8398C19.6024 62.842 19.3925 62.8402 19.1842 62.8346C18.9682 62.8257 18.7671 62.8139 18.5809 62.7993C18.3981 62.7769 18.244 62.7622 18.1189 62.755L18.0794 62.8482C18.1837 62.8832 18.3174 62.9351 18.4806 63.0041C18.647 63.0653 18.8234 63.1353 19.0099 63.2142C19.1996 63.2852 19.3838 63.3585 19.5625 63.4341L24.1539 65.3754L23.3404 67.298Z" fill="white"/>
<path d="M29.9728 53.3847L22.6387 48.7198L23.8139 46.8732L31.1481 51.5381L29.9728 53.3847Z" fill="white"/>
<path d="M35.7107 45.2773L30.515 40.8214L28.0183 43.7305L26.6162 42.528L33.0185 35.0679L34.4206 36.2704L31.9322 39.17L37.128 43.6259L35.7107 45.2773Z" fill="white"/>
<path d="M42.4114 38.0237L36.9698 31.2458L43.9172 25.6718L44.9945 27.0136L39.7543 31.2178L40.8236 32.5497L45.4519 28.8364L46.5133 30.1584L41.885 33.8717L43.0335 35.3023L48.3527 31.0347L49.4378 32.3864L42.4114 38.0237Z" fill="white"/>
<path d="M53.2807 29.8593L49.3082 22.1282L53.5063 19.9725C54.4592 19.4832 55.3542 19.2133 56.1912 19.1628C57.0244 19.1047 57.7732 19.2702 58.4377 19.6591C59.0983 20.0404 59.6445 20.6513 60.0763 21.4915C60.5042 22.3243 60.6827 23.1239 60.6119 23.8904C60.5372 24.6493 60.2355 25.3542 59.7069 26.0049C59.1745 26.6481 58.4318 27.2143 57.4789 27.7036L53.2807 29.8593ZM54.4356 27.3178L56.5854 26.2139C56.9755 26.0136 57.3088 25.7856 57.5852 25.5299C57.8652 25.2628 58.079 24.9776 58.2266 24.6742C58.3704 24.3634 58.4366 24.0402 58.4254 23.7046C58.4103 23.3615 58.3103 23.0099 58.1252 22.6498L57.9922 22.391C57.8072 22.0309 57.5815 21.7485 57.3152 21.5439C57.045 21.3318 56.7436 21.1974 56.411 21.1407C56.0745 21.0764 55.7161 21.0803 55.3358 21.1523C54.9631 21.2204 54.5816 21.3546 54.1914 21.555L52.0417 22.6588L54.4356 27.3178Z" fill="white"/>
<path d="M73.0423 22.1034C71.8834 22.3706 70.8756 22.4298 70.019 22.281C69.1604 22.124 68.459 21.7663 67.9147 21.208C67.3767 20.6395 66.9978 19.8786 66.7779 18.9252C66.4556 17.528 66.6552 16.348 67.3766 15.3854C68.0962 14.4145 69.3067 13.7329 71.0081 13.3408C71.9697 13.1191 72.8485 13.0637 73.6445 13.1745C74.4405 13.2853 75.1037 13.5523 75.6341 13.9753C76.1645 14.3984 76.5121 14.9674 76.6771 15.6825L74.5935 16.1628C74.5063 15.7847 74.3132 15.4916 74.0141 15.2836C73.7214 15.0654 73.3453 14.9357 72.8856 14.8945C72.4342 14.8514 71.925 14.8952 71.3578 15.026C70.7332 15.1699 70.2185 15.3968 69.8139 15.7065C69.4092 16.0161 69.1313 16.3875 68.9801 16.8205C68.829 17.2535 68.8141 17.733 68.9354 18.259L69.0065 18.5672C69.1279 19.0933 69.3522 19.5219 69.6797 19.8533C70.0053 20.1764 70.4178 20.3886 70.9172 20.4899C71.4167 20.5912 71.9788 20.5698 72.6034 20.4258C73.2034 20.2875 73.702 20.1033 74.099 19.8733C74.4961 19.6433 74.7794 19.3702 74.9488 19.0542C75.1265 18.7362 75.1718 18.3882 75.0845 18.0102L77.1188 17.5412C77.28 18.2398 77.2189 18.8945 76.9356 19.5051C76.6523 20.1157 76.1771 20.6451 75.51 21.0931C74.8512 21.5393 74.0286 21.8761 73.0423 22.1034Z" fill="white"/>
<path d="M88.111 20.2542C86.9556 20.272 85.9492 20.1104 85.092 19.7694C84.2431 19.4282 83.5858 18.928 83.1201 18.2687C82.6543 17.6011 82.414 16.7907 82.3993 15.8377C82.3846 14.8847 82.5998 14.0715 83.0449 13.3982C83.4899 12.7165 84.1315 12.1962 84.9695 11.8374C85.8158 11.47 86.8167 11.2774 87.9721 11.2596C89.136 11.2416 90.1423 11.4032 90.9912 11.7444C91.8399 12.0772 92.4972 12.5774 92.963 13.2451C93.4287 13.9043 93.669 14.7104 93.6837 15.6635C93.6984 16.6165 93.4832 17.4338 93.0382 18.1156C92.5931 18.7889 91.9516 19.3091 91.1137 19.6764C90.2758 20.0436 89.2749 20.2362 88.111 20.2542ZM88.0843 18.5211C88.5819 18.5134 89.0364 18.4515 89.448 18.3355C89.8594 18.2111 90.2153 18.0368 90.5155 17.8129C90.8157 17.5889 91.0434 17.3112 91.1986 16.9798C91.362 16.6399 91.4405 16.2591 91.434 15.8374L91.4295 15.5464C91.423 15.1247 91.3329 14.7507 91.1591 14.4244C90.9938 14.098 90.7576 13.8275 90.4506 13.6129C90.1436 13.3983 89.7827 13.2394 89.3677 13.1361C88.9526 13.0244 88.4963 12.9724 87.9987 12.9801C87.5011 12.9878 87.0466 13.0538 86.6352 13.1783C86.2236 13.2943 85.8677 13.4643 85.5675 13.6883C85.2673 13.9122 85.0353 14.19 84.8717 14.5215C84.7166 14.8529 84.6423 15.2294 84.6488 15.6511L84.6533 15.9421C84.6598 16.3638 84.7458 16.7421 84.9112 17.0769C85.085 17.4032 85.3253 17.6737 85.6323 17.8883C85.9393 18.1029 86.3004 18.266 86.7155 18.3777C87.1304 18.481 87.5867 18.5287 88.0843 18.5211Z" fill="white"/>
<path d="M97.2777 20.476L98.8086 11.9199L100.963 12.3052L99.7577 19.043L105.213 20.0184L104.887 21.8367L97.2777 20.476Z" fill="white"/>
<path d="M108.213 22.6971L111.114 14.5035L113.178 15.2336L110.893 21.6859L116.117 23.5344L115.501 25.2757L108.213 22.6971Z" fill="white"/>
<path d="M119.2 26.9004L123.511 19.353L131.247 23.7687L130.393 25.2628L124.559 21.9322L123.711 23.4153L128.865 26.357L128.024 27.8292L122.87 24.8874L121.96 26.4804L127.883 29.8612L127.023 31.3663L119.2 26.9004Z" fill="white"/>
<path d="M134.088 37.121C133.194 36.337 132.557 35.5541 132.177 34.7722C131.802 33.984 131.683 33.206 131.818 32.4382C131.965 31.6696 132.361 30.9175 133.006 30.182C133.952 29.1042 135.026 28.5766 136.229 28.5994C137.438 28.6158 138.698 29.1995 140.011 30.3506C140.753 31.0012 141.312 31.6817 141.687 32.3922C142.063 33.1026 142.234 33.7966 142.2 34.4741C142.167 35.1516 141.908 35.7661 141.425 36.3177L139.817 34.9081C140.073 34.6165 140.198 34.2886 140.192 33.9244C140.198 33.5595 140.083 33.1785 139.848 32.7816C139.619 32.3902 139.286 32.0027 138.848 31.619C138.366 31.1964 137.881 30.9115 137.393 30.7641C136.905 30.6168 136.441 30.6084 136.002 30.7388C135.562 30.8692 135.164 31.1373 134.808 31.5431L134.599 31.7808C134.243 32.1866 134.026 32.6191 133.949 33.0784C133.877 33.5313 133.946 33.99 134.156 34.4543C134.365 34.9186 134.711 35.3621 135.193 35.7847C135.656 36.1906 136.097 36.4874 136.516 36.6751C136.935 36.8628 137.322 36.9331 137.678 36.8859C138.04 36.8443 138.348 36.6776 138.604 36.3859L140.174 37.7622C139.701 38.3011 139.134 38.6341 138.473 38.7611C137.812 38.8881 137.104 38.8119 136.351 38.5326C135.603 38.2588 134.849 37.7883 134.088 37.121Z" fill="white"/>
<path d="M142.549 45.6465L147.965 41.4611L145.62 38.4285L147.081 37.2989L153.095 45.0757L151.633 46.2052L149.296 43.1826L143.88 47.368L142.549 45.6465Z" fill="white"/>
<path d="M148.04 53.4766L155.588 49.1674L156.674 51.068L149.125 55.3771L148.04 53.4766Z" fill="white"/>
<path d="M153.474 65.1779C153.068 64.0961 152.881 63.0941 152.913 62.1721C152.949 61.258 153.198 60.4708 153.662 59.8103C154.134 59.1469 154.816 58.6478 155.708 58.3131C156.601 57.9783 157.439 57.9072 158.223 58.0996C159.015 58.289 159.721 58.7179 160.341 59.3861C160.972 60.0592 161.49 60.9368 161.897 62.0186C162.306 63.1084 162.492 64.1103 162.457 65.0244C162.43 65.9355 162.18 66.7228 161.708 67.3862C161.245 68.0467 160.567 68.5443 159.674 68.879C158.782 69.2137 157.94 69.2864 157.148 69.097C156.364 68.9045 155.658 68.4757 155.03 67.8104C154.402 67.1452 153.883 66.2677 153.474 65.1779ZM155.097 64.5692C155.272 65.0351 155.483 65.4422 155.731 65.7907C155.987 66.1361 156.271 66.4125 156.583 66.6198C156.895 66.827 157.233 66.9479 157.597 66.9824C157.972 67.0219 158.358 66.9676 158.752 66.8194L159.025 66.7172C159.42 66.5691 159.742 66.3583 159.99 66.0849C160.242 65.8193 160.417 65.5059 160.516 65.1446C160.614 64.7832 160.642 64.3899 160.6 63.9644C160.565 63.536 160.46 63.0888 160.285 62.6229C160.111 62.157 159.895 61.7513 159.639 61.4059C159.392 61.0574 159.112 60.7796 158.8 60.5723C158.487 60.365 158.148 60.2402 157.781 60.1978C157.416 60.1633 157.037 60.2201 156.642 60.3682L156.369 60.4704C155.974 60.6185 155.647 60.8268 155.388 61.0954C155.139 61.3688 154.965 61.6862 154.867 62.0475C154.768 62.4088 154.736 62.8037 154.771 63.2321C154.813 63.6576 154.922 64.1032 155.097 64.5692Z" fill="white"/>
<path d="M156.254 73.1778L164.848 71.8777L165.149 73.8667L161.53 79.1231C161.469 79.2262 161.378 79.3552 161.256 79.5101C161.136 79.6733 161.008 79.842 160.872 80.0161C160.744 80.1889 160.631 80.3383 160.53 80.4644L160.547 80.577C160.713 80.5434 160.919 80.4994 161.167 80.4449C161.416 80.3987 161.624 80.363 161.791 80.3377L166.032 79.6962L166.344 81.7603L157.75 83.0604L157.454 81.1089L161.079 75.89C161.246 75.6429 161.433 75.3843 161.64 75.1142C161.846 74.8441 162.014 74.6268 162.143 74.4623L162.127 74.3622C162.02 74.3869 161.838 74.423 161.581 74.4705C161.323 74.5179 161.032 74.5663 160.707 74.6155L156.566 75.2419L156.254 73.1778Z" fill="white"/>
</g>
<path d="M89.5004 114.021L88.5004 114.021L90.5004 114.021L89.5004 114.021ZM106 90.0208C105.458 89.1806 105.457 89.1807 105.457 89.181C105.457 89.1811 105.456 89.1814 105.456 89.1816C105.455 89.1822 105.454 89.1829 105.453 89.1837C105.45 89.1854 105.447 89.1878 105.442 89.1908C105.433 89.1968 105.42 89.2054 105.403 89.2165C105.369 89.2388 105.32 89.2713 105.257 89.3137C105.13 89.3987 104.947 89.5235 104.716 89.6864C104.253 90.012 103.595 90.49 102.807 91.1049C101.232 92.3333 99.131 94.1144 97.0261 96.3245C92.8516 100.708 88.5004 106.949 88.5004 114.021L90.5004 114.021C90.5004 107.741 94.3991 101.983 98.4744 97.7038C100.494 95.5827 102.518 93.8672 104.037 92.6817C104.796 92.0895 105.427 91.6313 105.866 91.3224C106.086 91.168 106.257 91.051 106.373 90.9735C106.43 90.9347 106.474 90.9057 106.503 90.8869C106.517 90.8775 106.527 90.8706 106.534 90.8663C106.537 90.8641 106.54 90.8626 106.541 90.8617C106.542 90.8612 106.542 90.861 106.542 90.8608C106.543 90.8608 106.543 90.8608 106.543 90.8608C106.542 90.8608 106.542 90.861 106 90.0208ZM90.5004 114.021C90.5005 106.927 85.8738 100.679 81.4538 96.3035C79.2226 94.0947 76.9952 92.315 75.327 91.0878C74.4921 90.4735 73.795 89.9961 73.3046 89.6709C73.0593 89.5083 72.8656 89.3837 72.7319 89.299C72.6651 89.2567 72.6133 89.2243 72.5776 89.2021C72.5598 89.191 72.5459 89.1825 72.5363 89.1766C72.5314 89.1736 72.5276 89.1712 72.5249 89.1696C72.5235 89.1687 72.5224 89.1681 72.5216 89.1675C72.5211 89.1673 72.5207 89.167 72.5205 89.1669C72.5201 89.1667 72.5198 89.1665 72 90.0208C71.4802 90.875 71.48 90.8749 71.4799 90.8749C71.48 90.8749 71.4799 90.8749 71.48 90.875C71.4803 90.8751 71.4807 90.8754 71.4815 90.8758C71.483 90.8768 71.4855 90.8783 71.4891 90.8805C71.4962 90.8849 71.5075 90.8918 71.5228 90.9013C71.5533 90.9203 71.5998 90.9493 71.6611 90.9882C71.7839 91.066 71.9661 91.1832 72.1994 91.3379C72.6661 91.6473 73.3362 92.1061 74.1419 92.6988C75.7551 93.8855 77.9028 95.6025 80.0468 97.7248C84.377 102.012 88.5005 107.764 88.5004 114.021L90.5004 114.021Z" fill="white"/>
<path d="M89.478 114L89.478 64" stroke="white" stroke-width="2"/>
<circle opacity="0.2" cx="89" cy="89" r="88.5" stroke="white"/>
</svg>
