<svg width="39" height="50" viewBox="0 0 39 50" fill="none" xmlns="http://www.w3.org/2000/svg">
<path d="M13.7118 18.133C13.7118 19.1673 12.8867 20.0057 11.8688 20.0057C10.8509 20.0057 10.0258 19.1673 10.0258 18.133C10.0258 17.0987 10.8509 16.2602 11.8688 16.2602C12.8867 16.2602 13.7118 17.0987 13.7118 18.133Z" fill="#BF1E23"/>
<path d="M33.8931 18.133C33.8931 19.1673 33.0679 20.0057 32.05 20.0057C31.0322 20.0057 30.207 19.1673 30.207 18.133C30.207 17.0987 31.0322 16.2602 32.05 16.2602C33.0679 16.2602 33.8931 17.0987 33.8931 18.133Z" fill="#BF1E23"/>
<path d="M25.8183 19.2633H25.2537C25.2606 19.0093 25.2164 18.7565 25.1237 18.5198C25.0309 18.2831 24.8916 18.0674 24.7139 17.8853C24.5362 17.7032 24.3237 17.5585 24.089 17.4597C23.8542 17.3608 23.602 17.3099 23.3472 17.3099C23.0924 17.3099 22.8402 17.3608 22.6055 17.4597C22.3708 17.5585 22.1583 17.7032 21.9806 17.8853C21.8028 18.0674 21.6635 18.2831 21.5708 18.5198C21.4781 18.7565 21.4339 19.0093 21.4408 19.2633H20.8762C20.8683 18.9347 20.9265 18.6079 21.0471 18.3021C21.1678 17.9963 21.3486 17.7177 21.5788 17.4825C21.809 17.2474 22.0841 17.0606 22.3878 16.933C22.6915 16.8054 23.0177 16.7397 23.3472 16.7397C23.6768 16.7397 24.003 16.8054 24.3067 16.933C24.6104 17.0606 24.8854 17.2474 25.1157 17.4825C25.3459 17.7177 25.5267 17.9963 25.6473 18.3021C25.768 18.6079 25.8261 18.9347 25.8183 19.2633Z" fill="#BF1E23"/>
<path fill-rule="evenodd" clip-rule="evenodd" d="M26.4475 31.0212L26.4499 31.0281L26.1976 31.1268C24.9688 31.6057 23.6607 31.8496 22.3414 31.8456C19.5405 31.8485 16.8523 30.7453 14.8647 28.7772L14.8502 28.7629L14.6556 28.5714L14.6581 28.5691C13.7097 27.5882 12.9529 26.4384 12.4275 25.1786C11.8646 23.8286 11.5788 22.3798 11.5872 20.9177V20.6397H33.0971V20.9177C33.1037 23.1509 32.4283 25.3332 31.1606 27.1741C29.993 28.8841 28.3556 30.2192 26.4475 31.0212ZM15.4797 28.5811C16.8274 29.839 18.4968 30.7019 20.3044 31.075C22.1133 31.4483 23.9905 31.3167 25.7291 30.6944C24.8453 28.5297 22.4585 27.0407 19.8223 27.0407C18.9869 27.0306 18.164 27.1771 17.3941 27.4659C16.7024 27.7261 16.0545 28.1016 15.4797 28.5811Z" fill="#BF1E23"/>
<path fill-rule="evenodd" clip-rule="evenodd" d="M2.96455 23.6732C1.98944 23.2716 1.17264 22.5592 0.643828 21.6445C0.0815798 20.6719 -0.119165 19.533 0.0768393 18.4275C0.272843 17.3221 0.853067 16.3208 1.71564 15.5996C2.09626 15.2813 2.52113 15.0265 2.9738 14.8412C3.0946 11.2226 4.49632 7.76096 6.93374 5.07215C9.41315 2.337 12.7981 0.584796 16.468 0.136804C17.0939 0.0603367 17.7227 0.0339208 18.3249 0.0130662C18.9885 -0.00222723 20.398 -0.0105691 21.5216 0.025579C23.8373 0.100656 25.9145 0.535823 27.6976 1.31718L27.8663 1.39364C30.533 2.605 32.7976 4.55016 34.3942 7.00062C35.9625 9.40771 36.8221 12.2041 36.8771 15.0721C37.5853 15.5456 38.1548 16.1995 38.5255 16.9673C38.9188 17.7815 39.0723 18.6903 38.9684 19.588C38.8645 20.4858 38.5073 21.3358 37.9384 22.0392C37.4653 22.6241 36.862 23.0878 36.1789 23.395C36.0802 25.1735 35.6808 26.9248 34.9955 28.5743C34.1983 30.4935 33.0297 32.2373 31.5565 33.706C30.0834 35.1747 28.3346 36.3396 26.4099 37.1342C24.4853 37.9288 22.4225 38.3375 20.3395 38.337H3.45388C3.3241 38.337 3.19964 38.2855 3.10787 38.194C3.0161 38.1025 2.96455 37.9784 2.96455 37.849V23.6732ZM8.01548 16.3812C8.37414 16.3479 8.73166 16.3065 9.08778 16.2571C13.7758 15.611 18.1708 13.575 21.6959 10.4015C21.899 10.217 22.0993 10.0311 22.2926 9.84661C23.1192 10.6275 24.0002 11.3491 24.9289 12.0059C25.3844 12.3286 25.8509 12.6351 26.3275 12.925C28.069 13.9859 29.9426 14.8196 31.9023 15.4038L31.9441 15.4149C32.4014 15.5512 32.874 15.6749 33.348 15.7833C34.3002 16.0024 35.2649 16.1628 36.2368 16.2639C36.2479 16.3719 36.2576 16.4785 36.2659 16.5837V16.5953L36.2659 16.5957V16.598C36.2889 16.8839 36.3033 17.1697 36.3101 17.4555C36.3129 17.5753 36.3144 17.695 36.3147 17.8148L36.3147 17.8466C36.3148 17.8773 36.3147 17.9081 36.3146 17.9388C36.3099 18.9897 36.2013 20.0365 35.9909 21.0641C35.8427 21.7865 35.6441 22.4991 35.396 23.1965L35.3571 23.3072C35.0753 24.0811 34.7368 24.823 34.3474 25.529C32.6937 28.5271 30.1218 30.8758 27.0772 32.2584C25.1071 33.153 22.939 33.6432 20.6936 33.6432C19.5572 33.6432 18.4423 33.5203 17.3637 33.2842C17.3199 33.2746 17.2761 33.2649 17.2324 33.2549C12.3819 32.149 8.28242 28.7523 6.29789 23.9751C6.29789 23.9751 6.15895 23.6318 6.1224 23.5374L6.11808 23.526L6.02607 23.2868L5.77931 23.355C5.77123 23.357 5.76326 23.3594 5.75521 23.362C5.73548 23.3681 5.71524 23.3744 5.69148 23.3744C5.39752 23.4387 5.0974 23.4709 4.79645 23.4703C4.30234 23.4715 3.81193 23.3854 3.34796 23.2159C2.53486 22.9195 1.83237 22.3818 1.33509 21.675C0.837816 20.9683 0.569644 20.1266 0.566693 19.2633C0.567062 18.1473 1.01155 17.0772 1.80253 16.2878C2.24034 15.8509 2.76448 15.5199 3.335 15.3111L3.34789 15.3065C3.355 15.3039 3.36212 15.3013 3.36924 15.2988L3.38465 15.2933C3.82619 15.1379 4.29458 15.0555 4.77153 15.0534L4.78523 15.0534C4.83889 15.0534 4.8884 15.0557 4.93591 15.0579C4.97976 15.0599 5.02191 15.0618 5.06406 15.0618C5.07104 15.0622 5.07803 15.0627 5.08501 15.0631C6.10638 15.1332 7.06747 15.572 7.78824 16.2977L7.88304 16.3937L8.01548 16.3812ZM36.2014 22.7593C36.7446 22.4706 37.2182 22.0668 37.5889 21.576C37.9762 21.0631 38.2409 20.4687 38.3626 19.8382C38.4843 19.2077 38.46 18.5579 38.2913 17.9382C38.1227 17.3186 37.8142 16.7456 37.3896 16.263C37.2329 16.0837 37.061 15.9182 36.8758 15.7683L36.8755 15.7821L36.875 15.7977C36.8746 15.8132 36.8741 15.8286 36.8735 15.844C36.873 15.9037 36.8712 15.9627 36.8654 16.0211C36.8613 16.1165 36.8566 16.2097 36.851 16.3L36.85 16.3214L36.8497 16.3214C36.8441 16.409 36.8378 16.494 36.8305 16.5758C36.864 16.9999 36.8807 17.4295 36.8807 17.8535C36.8823 19.4438 36.654 21.0256 36.2031 22.5501C36.203 22.6199 36.2024 22.6896 36.2014 22.7593Z" fill="#BF1E23"/>
<path fill-rule="evenodd" clip-rule="evenodd" d="M6.97261 47.189L9.93651 49.7222C10.0258 49.8105 10.1318 49.8803 10.2484 49.9276C10.3649 49.9748 10.4897 49.9986 10.6154 49.9975H11.7015C12.1169 49.9975 12.2047 49.7222 11.8911 49.458L9.17393 47.164C11.438 46.9749 12.2173 45.5457 12.2173 44.204C12.2173 42.7609 11.3125 41.219 8.64556 41.219H0.442551C0.383377 41.2132 0.323647 41.2206 0.267647 41.2405C0.211647 41.2604 0.160766 41.2925 0.118655 41.3344C0.0765431 41.3762 0.044245 41.4269 0.0240778 41.4826C0.00391056 41.5384 -0.00362583 41.598 0.00200935 41.657V49.5581C-0.00398739 49.6178 0.00347925 49.678 0.0238619 49.7344C0.0442445 49.7908 0.0770265 49.842 0.119804 49.8841C0.162582 49.9262 0.214272 49.9583 0.271083 49.9779C0.327895 49.9975 0.388388 50.0042 0.448128 49.9975H1.2846C1.3439 50.0033 1.40377 49.9959 1.45988 49.9759C1.51599 49.9559 1.56695 49.9237 1.60909 49.8817C1.65122 49.8397 1.68349 49.7889 1.70356 49.7329C1.72363 49.677 1.731 49.6173 1.72514 49.5581V47.3142C1.72412 47.2975 1.72667 47.2808 1.73262 47.2651C1.73856 47.2495 1.74777 47.2353 1.75963 47.2234C1.77149 47.2116 1.78574 47.2024 1.80142 47.1965C1.8171 47.1906 1.83387 47.188 1.85061 47.189H6.97261ZM8.56609 45.5582H1.85061C1.83387 45.5592 1.8171 45.5567 1.80142 45.5507C1.78574 45.5448 1.77149 45.5356 1.75963 45.5238C1.74777 45.512 1.73856 45.4978 1.73262 45.4821C1.72667 45.4665 1.72412 45.4498 1.72514 45.4331V42.975C1.72414 42.9583 1.72669 42.9415 1.73263 42.9258C1.73856 42.9101 1.74774 42.8958 1.75958 42.8838C1.77142 42.8719 1.78564 42.8626 1.80132 42.8565C1.81701 42.8504 1.8338 42.8477 1.85061 42.8485H8.56609C9.79849 42.8485 10.4774 43.1891 10.4774 44.204C10.4774 45.219 9.79849 45.5582 8.56609 45.5582Z" fill="#BF1E23"/>
<path d="M13.5835 41.657V49.5581C13.5779 49.6172 13.5855 49.6768 13.6056 49.7326C13.6258 49.7885 13.6581 49.8392 13.7001 49.8812C13.7422 49.9231 13.7931 49.9553 13.8491 49.9754C13.9051 49.9955 13.9648 50.003 14.0241 49.9975H24.5999C24.6592 50.0033 24.719 49.9959 24.7751 49.9759C24.8313 49.9559 24.8822 49.9237 24.9244 49.8817C24.9665 49.8397 24.9988 49.7889 25.0188 49.7329C25.0389 49.677 25.0463 49.6173 25.0404 49.5581V48.806C25.046 48.7469 25.0385 48.6874 25.0183 48.6316C24.9982 48.5758 24.9659 48.5252 24.9238 48.4833C24.8817 48.4415 24.8308 48.4094 24.7748 48.3895C24.7188 48.3695 24.659 48.3622 24.5999 48.368H15.4321C15.4153 48.3688 15.3985 48.3661 15.3828 48.36C15.3672 48.3539 15.3529 48.3446 15.3411 48.3327C15.3293 48.3207 15.3201 48.3064 15.3141 48.2907C15.3082 48.275 15.3057 48.2583 15.3067 48.2415V46.5495C15.3054 46.5327 15.3078 46.5158 15.3137 46.5C15.3195 46.4842 15.3287 46.4698 15.3406 46.4578C15.3525 46.4458 15.3668 46.4365 15.3826 46.4305C15.3984 46.4245 15.4153 46.4219 15.4321 46.423H23.9809C24.0393 46.4303 24.0986 46.4245 24.1544 46.4059C24.2102 46.3873 24.2612 46.3565 24.3035 46.3156C24.3458 46.2748 24.3783 46.225 24.3987 46.17C24.4191 46.1149 24.4269 46.056 24.4214 45.9975V45.3455C24.4268 45.287 24.4191 45.228 24.3987 45.1729C24.3783 45.1178 24.3457 45.068 24.3035 45.027C24.2612 44.9861 24.2103 44.9551 24.1545 44.9364C24.0987 44.9176 24.0394 44.9116 23.9809 44.9187H15.4321C15.4154 44.9197 15.3986 44.9171 15.3829 44.9112C15.3673 44.9053 15.353 44.8961 15.3412 44.8843C15.3293 44.8724 15.3201 44.8582 15.3141 44.8426C15.3082 44.827 15.3056 44.8102 15.3067 44.7935V42.975C15.3057 42.9583 15.3082 42.9415 15.3141 42.9258C15.3201 42.9101 15.3293 42.8958 15.3411 42.8838C15.3529 42.8719 15.3672 42.8626 15.3828 42.8565C15.3985 42.8504 15.4153 42.8477 15.4321 42.8485H24.5999C24.659 42.8543 24.7188 42.847 24.7748 42.827C24.8308 42.8071 24.8817 42.7751 24.9238 42.7332C24.9659 42.6913 24.9982 42.6407 25.0183 42.5849C25.0385 42.5291 25.046 42.4696 25.0404 42.4105V41.657C25.046 41.598 25.0385 41.5384 25.0183 41.4826C24.9982 41.4269 24.9659 41.3762 24.9238 41.3344C24.8817 41.2925 24.8308 41.2604 24.7748 41.2405C24.7188 41.2206 24.659 41.2132 24.5999 41.219H14.0241C13.9649 41.2132 13.9052 41.2206 13.8492 41.2405C13.7932 41.2604 13.7423 41.2925 13.7002 41.3344C13.6581 41.3762 13.6258 41.4269 13.6056 41.4826C13.5854 41.5384 13.5779 41.598 13.5835 41.657Z" fill="#BF1E23"/>
<path fill-rule="evenodd" clip-rule="evenodd" d="M26.599 49.5581V41.657C26.5934 41.598 26.6009 41.5384 26.6211 41.4826C26.6413 41.4269 26.6736 41.3762 26.7157 41.3344C26.7578 41.2925 26.8087 41.2604 26.8647 41.2405C26.9207 41.2206 26.9804 41.2132 27.0396 41.219H32.8754C37.2766 41.219 38.9997 42.5106 38.9997 45.6083C38.9997 48.7059 37.2766 49.9975 32.8754 49.9975H27.0396C26.9803 50.003 26.9206 49.9955 26.8646 49.9754C26.8086 49.9553 26.7577 49.9231 26.7156 49.8812C26.6736 49.8392 26.6413 49.7885 26.6211 49.7326C26.601 49.6768 26.5934 49.6172 26.599 49.5581ZM28.449 48.3416H32.6607C36.4596 48.3416 37.2264 47.4268 37.2264 45.6083C37.2264 43.7897 36.4596 42.8735 32.6607 42.8735H28.449C28.4321 42.8725 28.4151 42.8751 28.3993 42.8811C28.3834 42.8871 28.369 42.8964 28.3571 42.9083C28.3451 42.9203 28.3358 42.9346 28.3297 42.9504C28.3237 42.9663 28.3211 42.9832 28.3222 43V48.2165C28.3211 48.2333 28.3237 48.2501 28.3297 48.2659C28.3357 48.2816 28.3451 48.2959 28.3571 48.3078C28.3691 48.3196 28.3835 48.3288 28.3994 48.3346C28.4152 48.3404 28.4322 48.3428 28.449 48.3416Z" fill="#BF1E23"/>
</svg>
