<svg width="139" height="36" viewBox="0 0 139 36" fill="none" xmlns="http://www.w3.org/2000/svg">
<path d="M0 36V0H30.1404C32.775 0 34.953 0.540697 36.6743 1.62209C38.3956 2.70349 39.6954 4.13372 40.5736 5.91279C41.4518 7.65697 41.8909 9.57558 41.8909 11.6686C41.8909 13.936 41.3464 16.0116 40.2574 17.8953C39.1685 19.7442 37.535 21.2093 35.357 22.2907L42.734 36H30.6146L24.6076 24.0174H10.6967V36H0ZM10.6967 16.1686H26.61C27.9097 16.1686 28.946 15.7849 29.7189 15.0174C30.4917 14.25 30.8781 13.2209 30.8781 11.9302C30.8781 11.093 30.7025 10.3779 30.3512 9.78488C29.9999 9.15697 29.5081 8.68605 28.8758 8.37209C28.2434 8.05814 27.4882 7.90116 26.61 7.90116H10.6967V16.1686Z" fill="white"/>
<path d="M50.4083 36V0H88.1364V7.90116H61.1576V13.9709H84.7641V21.6105H61.1576V28.0988H88.558V36H50.4083Z" fill="white"/>
<path d="M97.2145 36V0H117.449C121.91 0 125.756 0.697674 128.988 2.09302C132.22 3.48837 134.697 5.52907 136.418 8.21512C138.139 10.9012 139 14.1628 139 18C139 21.8721 138.139 25.1512 136.418 27.8372C134.697 30.4884 132.22 32.5116 128.988 33.907C125.756 35.3023 121.91 36 117.449 36H97.2145ZM107.911 28.0988H116.816C118.502 28.0988 120.013 27.8895 121.348 27.4709C122.718 27.0174 123.895 26.3895 124.878 25.5872C125.862 24.7849 126.617 23.7907 127.144 22.6047C127.706 21.4186 127.987 20.0756 127.987 18.5756V17.3721C127.987 15.8721 127.706 14.5465 127.144 13.3953C126.617 12.2093 125.862 11.2151 124.878 10.4128C123.895 9.61047 122.718 9 121.348 8.58139C120.013 8.12791 118.502 7.90116 116.816 7.90116H107.911V28.0988Z" fill="white"/>
</svg>
